<svg xmlns="http://www.w3.org/2000/svg" version="1.1" xmlns:xlink="http://www.w3.org/1999/xlink"
    xmlns:svgjs="http://svgjs.dev/svgjs" width="308.7612359841165" height="304.915625" viewBox="0 0 2000 1247">
    <g transform="matrix(1,0,0,1,-1.2121212121212466,0.504858299595071)">
        <svg viewBox="0 0 396 247" data-background-color="#ffffff"
            preserveAspectRatio="xMidYMid meet" height="1247" width="2000"
            xmlns="http://www.w3.org/2000/svg" xmlns:xlink="http://www.w3.org/1999/xlink">
            <g id="tight-bounds" transform="matrix(1,0,0,1,0.2400000000000091,-0.09999999999999432)">
                <svg viewBox="0 0 395.52 247.2" height="247.2" width="395.52">
                    <g>
                        <svg></svg>
                    </g>
                    <g>
                        <svg viewBox="0 0 395.52 247.2" height="247.2" width="395.52">
                            <g transform="matrix(1,0,0,1,134.19664,65.92)">
                                <svg viewBox="0 0 127.12671999999998 115.35999999999999"
                                    height="115.35999999999999" width="127.12671999999998">
                                    <g>
                                        <svg viewBox="0 0 127.12671999999998 115.35999999999999"
                                            height="115.35999999999999" width="127.12671999999998">
                                            <g>
                                                <svg viewBox="0 0 127.12671999999999 115.36"
                                                    height="115.35999999999999"
                                                    width="127.12671999999998">
                                                    <g>
                                                        <svg viewBox="0 0 127.12671999999999 115.36"
                                                            height="115.36"
                                                            width="127.12671999999999">
                                                            <g id="textblocktransform">
                                                                <svg
                                                                    viewBox="0 0 127.12671999999999 115.36"
                                                                    height="115.36"
                                                                    width="127.12671999999999"
                                                                    id="textblock">
                                                                    <g>
                                                                        <svg
                                                                            viewBox="0 0 127.12671999999999 115.36"
                                                                            height="115.36"
                                                                            width="127.12671999999999">
                                                                            <g
                                                                                transform="matrix(1,0,0,1,0,0)">
                                                                                <svg
                                                                                    width="127.12671999999999"
                                                                                    viewBox="3.200000047683716 -25 27.549999237060547 25"
                                                                                    height="115.36"
                                                                                    data-palette-color="#8b3c7f">
                                                                                    <path
                                                                                        d="M20.75-14.95L20.75-14.95 25.45-14.65Q26.15-14.65 26.5-14.7L26.5-14.7 24.15-10.3 23.7-10.3Q22.75-10.3 21-10.83 19.25-11.35 18.5-11.35L18.5-11.35Q16.45-11.35 15.25-8.7L15.25-8.7Q15.05-6.25 14.95-3.8L14.95-3.8Q17.55-3.3 19.05-3.3L19.05-3.3 19.5-3.3Q21.65-3.3 22.93-4.25 24.2-5.2 24.75-7.65L24.75-7.65 30.75-7.4Q30-3.1 28.75 0L28.75 0 4.2 0Q3.2-6.75 3.2-13.4 3.2-20.05 3.9-25L3.9-25 30.7-25Q29.8-19.6 29.1-17.4L29.1-17.4Q26.15-17.25 23.7-17.2L23.7-17.2Q24.1-18.35 24.1-19.35L24.1-19.35Q24.1-21.75 20.5-21.75L20.5-21.75Q19.15-21.75 17.5-21.45L17.5-21.45Q16.4-16.7 15.8-13.1L15.8-13.1Q17.8-14.95 20.75-14.95Z"
                                                                                        opacity="1"
                                                                                        transform="matrix(1,0,0,1,0,0)"
                                                                                        fill="#8b3c7f"
                                                                                        class="undefined-text-0"
                                                                                        data-fill-palette-color="primary"
                                                                                        id="text-0"></path>
                                                                                </svg>
                                                                            </g>
                                                                        </svg>
                                                                    </g>
                                                                </svg>
                                                            </g>
                                                        </svg>
                                                    </g>
                                                    <g></g>
                                                </svg>
                                            </g>
                                        </svg>
                                    </g>
                                </svg>
                            </g>
                            <g mask="url(#5c8ab5c8-6af5-41a1-8d63-bb08012839cf)">
                                <g
                                    transform="matrix(2.724425275395893, 0, 0, 2.724425275395893, 75.15881521422807, 1)">
                                    <svg xmlns="http://www.w3.org/2000/svg"
                                        xmlns:xlink="http://www.w3.org/1999/xlink" version="1.1"
                                        x="0" y="0"
                                        viewBox="4.999000072479248 4.999125003814697 90.00150299072266 90.0006332397461"
                                        enable-background="new 0 0 100 100" xml:space="preserve"
                                        height="90.0006332397461" width="90.00150299072266"
                                        class="icon-none" data-fill-palette-color="accent" id="none"><path d="M32.392 67.605c0.52 0.519 0.52 1.355 0.001 1.871l-9.58 9.581c-0.517 0.518-1.354 0.518-1.872 0l0 0c-0.516-0.517-0.516-1.354 0.001-1.871l9.581-9.58C31.041 67.09 31.876 67.09 32.392 67.605L32.392 67.605z" fill="#b13294" data-fill-palette-color="accent"></path><path d="M24.405 80.884l-5.738 5.738c-0.754 0.754-1.75 1.11-2.739 1.088l-1.916 1.914c2.117 0.752 4.566 0.298 6.261-1.395l5.738-5.737c1.694-1.696 2.146-4.146 1.393-6.261l-1.915 1.916C25.515 79.136 25.158 80.131 24.405 80.884z" fill="#b13294" data-fill-palette-color="accent"></path><path d="M12.292 84.074c-0.022-0.992 0.333-1.986 1.085-2.738l5.739-5.74c0.753-0.754 1.748-1.108 2.736-1.083l1.917-1.918c-2.115-0.75-4.563-0.298-6.257 1.396l-5.738 5.738c-1.694 1.694-2.146 4.143-1.397 6.26L12.292 84.074z" fill="#b13294" data-fill-palette-color="accent"></path><path d="M16.839 83.161c0.517 0.518 0.517 1.353 0 1.87l-9.581 9.583c-0.518 0.514-1.354 0.514-1.873 0l0 0c-0.515-0.516-0.515-1.356 0.002-1.87l9.58-9.583C15.486 82.643 16.323 82.643 16.839 83.161L16.839 83.161z" fill="#b13294" data-fill-palette-color="accent"></path><path d="M47.947 52.051c0.52 0.518 0.52 1.354 0.001 1.871l-9.58 9.58c-0.517 0.519-1.354 0.519-1.872 0l0 0c-0.516-0.516-0.516-1.353 0.001-1.87l9.581-9.58C46.595 51.535 47.431 51.535 47.947 52.051L47.947 52.051z" fill="#b13294" data-fill-palette-color="accent"></path><path d="M39.96 65.329l-5.739 5.738c-0.754 0.754-1.75 1.11-2.738 1.088l-1.917 1.914c2.117 0.752 4.567 0.298 6.261-1.395l5.738-5.738c1.694-1.695 2.146-4.145 1.393-6.26l-1.915 1.916C41.069 63.581 40.713 64.576 39.96 65.329z" fill="#b13294" data-fill-palette-color="accent"></path><path d="M27.846 68.52c-0.023-0.992 0.333-1.986 1.085-2.738l5.739-5.74c0.753-0.754 1.747-1.108 2.736-1.084l1.916-1.917c-2.115-0.75-4.563-0.298-6.257 1.396l-5.739 5.738c-1.693 1.694-2.146 4.143-1.396 6.26L27.846 68.52z" fill="#b13294" data-fill-palette-color="accent"></path><path d="M63.501 36.496c0.521 0.518 0.521 1.355 0.001 1.871l-9.579 9.581c-0.517 0.518-1.354 0.518-1.872 0l0 0c-0.516-0.516-0.516-1.353 0.001-1.871l9.581-9.58C62.149 35.98 62.985 35.98 63.501 36.496L63.501 36.496z" fill="#b13294" data-fill-palette-color="accent"></path><path d="M79.055 20.941c0.521 0.518 0.521 1.354 0.002 1.871l-9.58 9.581c-0.516 0.518-1.353 0.518-1.871 0l0 0c-0.516-0.516-0.516-1.353 0-1.871l9.581-9.58C77.704 20.425 78.539 20.425 79.055 20.941L79.055 20.941z" fill="#b13294" data-fill-palette-color="accent"></path><path d="M71.069 34.219l-5.739 5.738c-0.754 0.754-1.749 1.11-2.738 1.087l-1.916 1.914c2.117 0.752 4.566 0.298 6.261-1.394l5.738-5.738c1.694-1.695 2.146-4.145 1.392-6.26l-1.914 1.917C72.178 32.471 71.821 33.466 71.069 34.219z" fill="#b13294" data-fill-palette-color="accent"></path><path d="M58.955 37.409c-0.022-0.992 0.334-1.986 1.086-2.738l5.737-5.74c0.755-0.754 1.749-1.108 2.737-1.083l1.916-1.917c-2.115-0.75-4.562-0.298-6.256 1.395l-5.739 5.738c-1.693 1.694-2.146 4.143-1.397 6.26L58.955 37.409z" fill="#b13294" data-fill-palette-color="accent"></path><path d="M94.61 5.386c0.52 0.518 0.52 1.355 0.002 1.871l-9.581 9.581c-0.516 0.518-1.353 0.518-1.87 0l0 0c-0.517-0.516-0.517-1.353 0-1.871l9.58-9.58C93.26 4.87 94.095 4.87 94.61 5.386L94.61 5.386z" fill="#b13294" data-fill-palette-color="accent"></path><path d="M86.624 18.664l-5.74 5.738c-0.754 0.754-1.748 1.11-2.738 1.087l-1.916 1.914c2.117 0.752 4.567 0.298 6.263-1.394l5.737-5.738c1.694-1.696 2.146-4.146 1.393-6.26l-1.914 1.916C87.732 16.916 87.376 17.911 86.624 18.664z" fill="#b13294" data-fill-palette-color="accent"></path><path d="M74.51 21.854c-0.022-0.992 0.334-1.987 1.086-2.739l5.738-5.74c0.754-0.754 1.748-1.108 2.736-1.083l1.916-1.917c-2.115-0.75-4.563-0.298-6.256 1.395l-5.74 5.738c-1.692 1.694-2.146 4.143-1.396 6.26L74.51 21.854z" fill="#b13294" data-fill-palette-color="accent"></path><path d="M67.607 67.607c0.518-0.52 1.355-0.52 1.871 0l9.58 9.579c0.518 0.517 0.518 1.354 0 1.872l0 0c-0.516 0.516-1.354 0.516-1.871-0.002l-9.58-9.58C67.092 68.959 67.092 68.123 67.607 67.607L67.607 67.607z" fill="#b13294" data-fill-palette-color="accent"></path><path d="M80.885 75.595l5.738 5.738c0.754 0.755 1.111 1.749 1.088 2.739l1.914 1.916c0.752-2.117 0.299-4.566-1.395-6.262l-5.736-5.737c-1.697-1.694-4.146-2.146-6.262-1.394l1.916 1.916C79.137 74.485 80.133 74.842 80.885 75.595z" fill="#b13294" data-fill-palette-color="accent"></path><path d="M84.076 87.709c-0.992 0.021-1.986-0.334-2.738-1.086l-5.74-5.738c-0.754-0.754-1.109-1.748-1.084-2.736l-1.918-1.917c-0.75 2.115-0.297 4.563 1.396 6.257l5.738 5.738c1.693 1.694 4.143 2.146 6.26 1.397L84.076 87.709z" fill="#b13294" data-fill-palette-color="accent"></path><path d="M83.162 83.16c0.518-0.516 1.354-0.516 1.871 0l9.582 9.581c0.514 0.518 0.514 1.354 0 1.872l0 0c-0.516 0.516-1.355 0.516-1.869-0.002l-9.584-9.58C82.645 84.514 82.645 83.678 83.162 83.16L83.162 83.16z" fill="#b13294" data-fill-palette-color="accent"></path><g fill="#b13294" data-fill-palette-color="accent"><path d="M54.986 50.994l1.261 1.261 0.873-0.873c1.694-1.695 2.146-4.145 1.393-6.26l-1.915 1.916c0.026 0.988-0.33 1.984-1.083 2.737l-0.907 0.907C54.74 50.775 54.869 50.876 54.986 50.994z" fill="#b13294" data-fill-palette-color="accent"></path><path d="M50.992 54.982c-0.117-0.117-0.216-0.246-0.308-0.378l-0.908 0.908c-0.754 0.754-1.75 1.11-2.739 1.087l-1.916 1.914c2.117 0.752 4.566 0.299 6.261-1.394l0.874-0.874L50.992 54.982z" fill="#b13294" data-fill-palette-color="accent"></path></g><path d="M52.053 52.053c0.518-0.52 1.354-0.52 1.871 0l9.58 9.58c0.518 0.516 0.518 1.354 0 1.871l0 0c-0.516 0.516-1.354 0.516-1.871-0.002l-9.58-9.58C51.537 53.405 51.537 52.569 52.053 52.053L52.053 52.053z" fill="#b13294" data-fill-palette-color="accent"></path><path d="M65.33 60.04l5.738 5.739c0.754 0.754 1.111 1.749 1.088 2.738l1.914 1.916c0.752-2.117 0.299-4.566-1.395-6.261l-5.738-5.738c-1.695-1.694-4.145-2.146-6.26-1.394l1.916 1.916C63.582 58.931 64.578 59.287 65.33 60.04z" fill="#b13294" data-fill-palette-color="accent"></path><path d="M68.521 72.154c-0.992 0.022-1.986-0.334-2.738-1.086l-5.74-5.738c-0.754-0.754-1.109-1.748-1.084-2.736l-1.918-1.916c-0.75 2.114-0.297 4.562 1.396 6.256l5.738 5.739c1.693 1.693 4.143 2.146 6.26 1.396L68.521 72.154z" fill="#b13294" data-fill-palette-color="accent"></path><g fill="#b13294" data-fill-palette-color="accent"><path d="M45.019 49.01l-1.264-1.264-0.873 0.873c-1.693 1.694-2.146 4.144-1.397 6.261l1.916-1.914c-0.023-0.993 0.333-1.987 1.085-2.739l0.908-0.908C45.263 49.225 45.135 49.126 45.019 49.01z" fill="#b13294" data-fill-palette-color="accent"></path><path d="M48.62 42.88l-0.874 0.874 1.263 1.263c0.116 0.116 0.216 0.244 0.309 0.375l0.906-0.906c0.753-0.754 1.748-1.108 2.736-1.083l1.916-1.917C52.762 40.735 50.314 41.187 48.62 42.88z" fill="#b13294" data-fill-palette-color="accent"></path></g><path d="M36.497 36.499c0.518-0.521 1.355-0.521 1.871-0.001l9.581 9.579c0.518 0.517 0.518 1.354 0 1.872l0 0c-0.516 0.516-1.353 0.516-1.871-0.001l-9.58-9.581C35.981 37.851 35.981 37.015 36.497 36.499L36.497 36.499z" fill="#b13294" data-fill-palette-color="accent"></path><path d="M20.942 20.945c0.518-0.521 1.354-0.521 1.871-0.002l9.581 9.58c0.518 0.516 0.518 1.353 0 1.871l0 0c-0.516 0.516-1.353 0.516-1.871 0l-9.58-9.581C20.426 22.296 20.426 21.461 20.942 20.945L20.942 20.945z" fill="#b13294" data-fill-palette-color="accent"></path><path d="M34.221 28.931l5.738 5.739c0.754 0.754 1.11 1.749 1.087 2.738l1.914 1.916c0.752-2.117 0.298-4.566-1.394-6.261l-5.738-5.738c-1.695-1.694-4.145-2.146-6.26-1.392l1.917 1.914C32.472 27.822 33.468 28.179 34.221 28.931z" fill="#b13294" data-fill-palette-color="accent"></path><path d="M37.411 41.045c-0.992 0.022-1.986-0.334-2.738-1.086l-5.74-5.737c-0.754-0.755-1.108-1.749-1.083-2.737l-1.917-1.916c-0.75 2.115-0.298 4.562 1.395 6.256l5.738 5.739c1.694 1.693 4.143 2.146 6.26 1.397L37.411 41.045z" fill="#b13294" data-fill-palette-color="accent"></path><path d="M5.387 5.39c0.518-0.52 1.355-0.52 1.871-0.002l9.581 9.581c0.518 0.516 0.518 1.353 0 1.87l0 0c-0.516 0.517-1.353 0.517-1.871 0l-9.58-9.58C4.872 6.74 4.872 5.905 5.387 5.39L5.387 5.39z" fill="#b13294" data-fill-palette-color="accent"></path><path d="M18.666 13.376l5.738 5.74c0.754 0.754 1.11 1.748 1.087 2.738l1.914 1.916c0.752-2.117 0.298-4.567-1.394-6.263l-5.738-5.737c-1.696-1.694-4.146-2.146-6.26-1.393l1.916 1.914C16.917 12.268 17.913 12.624 18.666 13.376z" fill="#b13294" data-fill-palette-color="accent"></path><path d="M21.856 25.49c-0.992 0.022-1.987-0.334-2.739-1.086l-5.74-5.738c-0.754-0.754-1.108-1.748-1.083-2.736l-1.917-1.916c-0.75 2.115-0.298 4.563 1.395 6.256l5.738 5.74c1.694 1.692 4.143 2.146 6.26 1.396L21.856 25.49z" fill="#b13294" data-fill-palette-color="accent"></path></svg>
                                </g>
                            </g>
                        </svg>
                    </g>
                    <defs>
                        <mask id="57f2a541-fa68-4d0a-8234-6dcb993fca62">
                            <rect width="640" height="400" fill="white"></rect>
                            <rect width="102.38369846878678" height="169.82745472" fill="black"
                                x="268.8081507656066" y="115.08627264" id="transform-me"
                                transform="matrix(1,0,0,1,-122.24000000000001,-76.4)"></rect>
                        </mask>
                        <mask id="ca82546a-9fbf-49cb-a161-255b015e814b">
                            <rect width="640" height="400" fill="white"></rect>
                            <rect width="102.38369846878678" height="169.82745472" fill="black"
                                x="268.8081507656066" y="115.08627264" id="transform-me"
                                transform="matrix(1,0,0,1,-122.24000000000001,-76.4)"></rect>
                        </mask>
                        <mask id="36809de1-a0ba-4746-8701-a0a3a49380d1">
                            <rect width="640" height="400" fill="white"></rect>
                            <rect width="126.896" height="169.82745472" fill="black" x="256.552"
                                y="115.08627264" id="transform-me"
                                transform="matrix(1,0,0,1,-122.24000000000001,-76.4)"></rect>
                        </mask>
                        <mask id="5eba646c-8c49-4a64-bad7-0c455274427a">
                            <rect width="640" height="400" fill="white"></rect>
                            <rect width="232.0384" height="46.25088128544681" fill="black"
                                x="203.9808" y="176.8745593572766" id="transform-me"
                                transform="matrix(1,0,0,1,-122.24000000000001,-76.4)"></rect>
                        </mask>
                        <mask id="e7836873-cdee-48aa-93ec-fc86a1088de0">
                            <rect width="640" height="400" fill="white"></rect>
                            <rect width="126.896" height="169.82745472" fill="black" x="256.552"
                                y="115.08627264" id="transform-me"
                                transform="matrix(1,0,0,1,-122.24000000000001,-76.4)"></rect>
                        </mask>
                        <mask id="df0f35e0-3ed9-40c7-ac7e-40c4be40885c">
                            <rect width="640" height="400" fill="white"></rect>
                            <rect width="102.38369846878678" height="169.82745472" fill="black"
                                x="268.8081507656066" y="115.08627264" id="transform-me"
                                transform="matrix(1,0,0,1,-122.24000000000001,-76.4)"></rect>
                        </mask>
                        <mask id="b723569d-e4ac-4484-a236-fd1fb10cf7d8">
                            <rect width="640" height="400" fill="white"></rect>
                            <rect width="71.63483870967741" height="169.82745472" fill="black"
                                x="284.1825806451613" y="115.08627264" id="transform-me"
                                transform="matrix(1,0,0,1,-122.24000000000001,-76.4)"></rect>
                        </mask>
                        <mask id="307ddada-1935-4d4d-b405-42ad973bec82">
                            <rect width="640" height="400" fill="white"></rect>
                            <rect width="232.0384" height="46.25088128544681" fill="black"
                                x="203.9808" y="176.8745593572766" id="transform-me"
                                transform="matrix(1,0,0,1,-122.24000000000001,-76.4)"></rect>
                        </mask>
                        <mask id="67df2fe5-500e-4039-a72f-0b2dd0b47624">
                            <rect width="640" height="400" fill="white"></rect>
                            <rect width="71.63483870967741" height="169.82745472" fill="black"
                                x="284.1825806451613" y="115.08627264" id="transform-me"
                                transform="matrix(1,0,0,1,-122.24000000000001,-76.4)"></rect>
                        </mask>
                        <mask id="bc8f66f9-b40f-4542-a8a9-ceca8efaa32b">
                            <rect width="640" height="400" fill="white"></rect>
                            <rect width="232.0384" height="46.25088128544681" fill="black"
                                x="203.9808" y="176.8745593572766" id="transform-me"
                                transform="matrix(1,0,0,1,-122.24000000000001,-76.4)"></rect>
                        </mask>
                        <mask id="c6bc574d-9bac-4f15-8c3e-de19acf42874">
                            <rect width="640" height="400" fill="white"></rect>
                            <rect width="126.896" height="169.82745472" fill="black" x="256.552"
                                y="115.08627264" id="transform-me"
                                transform="matrix(1,0,0,1,-122.24000000000001,-76.4)"></rect>
                        </mask>
                        <mask id="f73e4ed2-5ff6-4e2f-aef2-bbc78fcbb5dc">
                            <rect width="640" height="400" fill="white"></rect>
                            <rect width="102.38369846878678" height="169.82745472" fill="black"
                                x="268.8081507656066" y="115.08627264" id="transform-me"
                                transform="matrix(1,0,0,1,-122.24000000000001,-76.4)"></rect>
                        </mask>
                        <mask id="37e57764-9590-4863-9e64-99fd0832b779">
                            <rect width="640" height="400" fill="white"></rect>
                            <rect width="102.38369846878678" height="169.82745472" fill="black"
                                x="268.8081507656066" y="115.08627264" id="transform-me"
                                transform="matrix(1,0,0,1,-122.24000000000001,-76.4)"></rect>
                        </mask>
                        <mask id="05ac38ea-496c-4ce5-8335-cbb4a3553f47">
                            <rect width="640" height="400" fill="white"></rect>
                            <rect width="102.38369846878678" height="169.82745472" fill="black"
                                x="268.8081507656066" y="115.08627264" id="transform-me"
                                transform="matrix(1,0,0,1,-122.24000000000001,-76.4)"></rect>
                        </mask>
                        <mask id="15238cd1-7bcc-43d6-ab8a-a9409d1fa55e">
                            <rect width="640" height="400" fill="white"></rect>
                            <rect width="102.38369846878678" height="169.82745472" fill="black"
                                x="268.8081507656066" y="115.08627264" id="transform-me"
                                transform="matrix(1,0,0,1,-122.24000000000001,-76.4)"></rect>
                        </mask>
                        <mask id="0bb624f0-fb82-4fb3-a503-48ac005577c3">
                            <rect width="640" height="400" fill="white"></rect>
                            <rect width="139.83939199999998" height="169.82745472" fill="black"
                                x="250.080304" y="115.08627264" id="transform-me"
                                transform="matrix(1,0,0,1,-122.24000000000001,-76.4)"></rect>
                        </mask>
                        <mask id="c44882f9-d8b9-4beb-b731-6c8e4f28c11a">
                            <rect width="640" height="400" fill="white"></rect>
                            <rect width="139.83939199999998" height="169.82745472" fill="black"
                                x="250.080304" y="115.08627264" id="transform-me"
                                transform="matrix(1,0,0,1,-122.24000000000001,-76.4)"></rect>
                        </mask>
                        <mask id="478ac009-fcb5-4828-a18f-ceb9e1251204">
                            <rect width="640" height="400" fill="white"></rect>
                            <rect width="139.83939199999998" height="169.82745472" fill="black"
                                x="250.080304" y="115.08627264" id="transform-me"
                                transform="matrix(1,0,0,1,-122.24000000000001,-76.4)"></rect>
                        </mask>
                        <mask id="8485b47a-1581-4681-8abc-5ea6e95337b0">
                            <rect width="640" height="400" fill="white"></rect>
                            <rect width="139.83939199999998" height="169.82745472" fill="black"
                                x="250.080304" y="115.08627264" id="transform-me"
                                transform="matrix(1,0,0,1,-122.24000000000001,-76.4)"></rect>
                        </mask>
                        <mask id="5c8ab5c8-6af5-41a1-8d63-bb08012839cf">
                            <rect width="640" height="400" fill="white"></rect>
                            <rect width="139.83939199999998" height="169.82745472" fill="black"
                                x="250.080304" y="115.08627264" id="transform-me"
                                transform="matrix(1,0,0,1,-122.24000000000001,-76.4)"></rect>
                        </mask>
                    </defs>
                </svg>
                <rect width="395.52" height="247.2" fill="none" stroke="none" visibility="hidden"></rect>
            </g>
        </svg>
    </g>
</svg>